<?xml version="1.0" encoding="utf-8"?>
<!-- Generator: Adobe Illustrator 16.0.0, SVG Export Plug-In . SVG Version: 6.00 Build 0)  -->
<!DOCTYPE svg PUBLIC "-//W3C//DTD SVG 1.1//EN" "http://www.w3.org/Graphics/SVG/1.1/DTD/svg11.dtd">
<svg version="1.1" id="Layer_1" xmlns="http://www.w3.org/2000/svg" xmlns:xlink="http://www.w3.org/1999/xlink" x="0px" y="0px"
	 width="100px" height="100px" viewBox="0 0 100 100" enable-background="new 0 0 100 100" xml:space="preserve">
<g id="DRUhCL_1_">
	<g>
		<path fill="#E0E0E0" d="M45.396,82.188c-0.069,0-0.142,0-0.212,0c-0.265-0.101-0.516-0.23-0.712-0.442
			c-0.164-0.175-0.34-0.343-0.477-0.541c-0.281-0.396-0.542-0.81-0.81-1.217c-0.046-0.07-0.088-0.139-0.14-0.223
			c-0.152,0.064-0.291,0.116-0.423,0.179c-0.139,0.066-0.277,0.096-0.431,0.084c-0.451-0.04-0.901-0.072-1.353-0.106
			c-0.513-0.038-1.003-0.158-1.452-0.423c-0.312-0.184-0.658-0.24-1.017-0.256c-0.311-0.015-0.621-0.04-0.928-0.085
			c-0.226-0.029-0.439-0.01-0.645,0.07c-0.262,0.104-0.523,0.217-0.784,0.325c-0.361,0.154-0.739,0.242-1.132,0.246
			c-0.778,0.006-1.556,0.002-2.334-0.004c-0.146-0.002-0.296-0.021-0.441-0.048c-0.069-0.015-0.182-0.061-0.188-0.104
			c-0.028-0.21-0.176-0.219-0.328-0.227c-0.238-0.014-0.48-0.034-0.719-0.025c-0.466,0.01-0.935,0.002-1.39,0.136
			c-0.045,0.014-0.106-0.01-0.159-0.024c-0.149-0.04-0.296-0.109-0.447-0.122c-0.535-0.048-1.071-0.082-1.607-0.108
			c-0.159-0.008-0.336-0.008-0.479,0.055c-0.15,0.062-0.294,0.088-0.45,0.086c-0.207,0-0.406,0.03-0.606,0.088
			c-0.504,0.148-1.012,0.196-1.522,0.017c-0.093-0.032-0.193-0.044-0.291-0.059c-0.414-0.063-0.818,0.015-1.218,0.106
			c-0.448,0.099-0.892,0.219-1.336,0.331c-0.291,0.074-0.543,0-0.773-0.183c-0.15-0.118-0.302-0.232-0.459-0.343
			c-0.218-0.148-0.464-0.206-0.726-0.175c-0.147,0.019-0.292,0.057-0.438,0.072c-0.125,0.013-0.257,0.032-0.377,0.004
			c-0.218-0.05-0.434-0.126-0.646-0.206c-0.238-0.09-0.463-0.21-0.652-0.385c-0.208-0.196-0.324-0.431-0.293-0.719
			c0.029-0.275,0.065-0.548,0.11-0.82c0.123-0.747,0.188-1.503,0.172-2.258c-0.019-0.857-0.041-1.714-0.065-2.569
			c-0.015-0.593-0.031-1.188-0.053-1.781c-0.016-0.389-0.049-0.777-0.066-1.166c-0.023-0.545-0.039-1.088,0.077-1.627
			c0.121-0.569,0.322-1.108,0.748-1.518c0.202-0.196,0.333-0.414,0.428-0.667c0.066-0.17,0.132-0.343,0.196-0.513
			c0.284-0.758,0.446-1.533,0.405-2.345c-0.037-0.729-0.043-1.459-0.091-2.185c-0.024-0.372-0.1-0.743-0.164-1.109
			c-0.04-0.229-0.149-0.429-0.327-0.583c-0.273-0.232-0.544-0.476-0.833-0.688c-0.163-0.118-0.221-0.236-0.22-0.438
			c0.005-1.18-0.007-2.362-0.014-3.542c-0.001-0.213-0.01-0.425-0.013-0.638c-0.011-0.629-0.026-1.256-0.026-1.886
			c0-0.372,0.127-0.699,0.372-0.989c0.289-0.347,0.566-0.708,0.817-1.083c0.199-0.299,0.367-0.621,0.516-0.948
			c0.191-0.421,0.152-0.84-0.094-1.236c-0.078-0.127-0.152-0.255-0.231-0.381C18.354,46.529,18.14,46.031,18,45.5
			c-0.177-0.664-0.261-1.334-0.096-2.012c0.083-0.342,0.21-0.674,0.295-1.017c0.044-0.175,0.073-0.365,0.054-0.543
			c-0.037-0.35-0.096-0.701-0.174-1.044c-0.259-1.137-0.538-2.27-0.798-3.406c-0.153-0.668-0.279-1.342-0.331-2.028
			c-0.04-0.528-0.066-1.06-0.134-1.585c-0.101-0.801-0.078-1.597,0.037-2.39c0.109-0.755,0.263-1.503,0.386-2.257
			c0.129-0.794,0.261-1.589,0.361-2.389c0.061-0.483,0.075-0.972,0.097-1.459c0.044-1.019,0.071-2.038-0.021-3.054
			c-0.033-0.366-0.081-0.736-0.242-1.071c-0.217-0.451-0.246-0.923-0.209-1.409c0.031-0.416,0.054-0.832,0.083-1.249
			c0.007-0.104,0.018-0.211,0.041-0.314c0.074-0.345,0.286-0.542,0.637-0.586c0.097-0.013,0.197,0.003,0.295,0.011
			c0.281,0.027,0.561,0.075,0.842,0.083c1.231,0.034,2.462,0.038,3.692,0c1.889-0.06,3.777-0.108,5.666-0.161
			c0.87-0.024,1.739-0.049,2.609-0.066c0.644-0.013,1.289-0.021,1.932-0.015c0.508,0.006,0.898,0.234,1.128,0.696
			c0.058,0.116,0.139,0.166,0.253,0.194c0.478,0.12,0.965,0.15,1.454,0.161c1.111,0.028,2.22-0.022,3.323-0.168
			c0.271-0.035,0.542-0.1,0.807-0.171c0.102-0.029,0.208-0.096,0.277-0.177c0.087-0.101,0.179-0.153,0.307-0.161
			c0.097-0.006,0.196-0.018,0.296-0.023c0.551-0.034,1.101-0.059,1.651-0.101c0.331-0.025,0.661-0.073,0.968-0.214
			c0.287-0.13,0.437-0.348,0.431-0.668c0-0.028,0-0.057,0-0.084c0.004-0.248,0.051-0.296,0.298-0.3c0.058-0.001,0.112,0,0.17,0
			c1.274,0,2.547,0.005,3.819-0.003c0.788-0.006,1.572-0.027,2.358-0.059c0.932-0.039,1.864-0.099,2.796-0.146
			c0.254-0.012,0.51-0.008,0.764-0.005c0.077,0,0.157,0.012,0.229,0.037c0.152,0.056,0.175,0.166,0.052,0.269
			c-0.069,0.059-0.15,0.111-0.233,0.14c-0.202,0.069-0.407,0.123-0.608,0.183c-0.084,0.025-0.167,0.054-0.248,0.08
			c-0.002,0.018-0.005,0.034-0.007,0.05c0.062,0.04,0.119,0.09,0.186,0.117c0.139,0.054,0.278,0.107,0.421,0.143
			c0.659,0.159,1.321,0.313,1.982,0.466c0.244,0.057,0.492,0.103,0.746,0.154c0.014,0.107,0.025,0.198,0.04,0.288
			c0.087,0.508,0.339,0.836,0.922,0.823c0.34-0.009,0.681-0.004,1.018-0.038c0.542-0.054,0.936-0.335,1.147-0.847
			c0.053-0.125,0.103-0.249,0.156-0.372c0.157-0.357,0.329-0.704,0.561-1.021c0.178-0.246,0.404-0.35,0.71-0.329
			c0.771,0.05,1.533,0.153,2.289,0.309c0.347,0.07,0.693,0.158,1.042,0.175c0.806,0.039,1.611,0.046,2.419,0.054
			c1.748,0.016,3.496,0.025,5.242,0.03c0.302,0,0.474,0.149,0.571,0.414c0.038,0.112,0.066,0.229,0.098,0.346
			c0.045,0.171,0.076,0.346,0.131,0.514c0.036,0.112,0.088,0.225,0.156,0.321c0.14,0.193,0.307,0.218,0.492,0.073
			c0.109-0.085,0.214-0.188,0.298-0.299c0.161-0.213,0.308-0.44,0.466-0.658c0.106-0.15,0.213-0.3,0.332-0.44
			c0.124-0.149,0.288-0.203,0.477-0.144c0.14,0.045,0.281,0.094,0.411,0.163c0.169,0.09,0.329,0.192,0.486,0.303
			c0.173,0.126,0.369,0.183,0.576,0.174c0.398-0.014,0.791-0.034,1.187-0.062c0.395-0.03,0.786-0.086,1.183-0.108
			c0.462-0.023,0.917,0.024,1.359,0.174c0.244,0.083,0.478,0.192,0.632,0.408c0.239,0.336,0.568,0.52,0.959,0.613
			c0.173,0.042,0.339,0.102,0.508,0.156c0.146,0.047,0.244,0.15,0.275,0.296c0.044,0.186,0.088,0.375,0.09,0.562
			c0.005,0.332-0.017,0.664-0.04,0.996c-0.029,0.396-0.073,0.789-0.297,1.135c-0.023,0.036-0.035,0.077-0.055,0.115
			c-0.146,0.282-0.223,0.584-0.193,0.9c0.048,0.542,0.107,1.083,0.186,1.622c0.075,0.545,0.193,1.086,0.267,1.632
			c0.146,1.073,0.184,2.156,0.204,3.237c0.053,2.929,0.022,5.857-0.067,8.786c-0.002,0.048-0.015,0.095-0.021,0.146
			c-0.182,0.062-0.354,0.121-0.528,0.181c-0.408,0.14-0.817,0.28-1.223,0.421c-0.271,0.094-0.444,0.276-0.472,0.568
			c-0.019,0.204,0.048,0.396,0.171,0.556c0.146,0.189,0.146,0.39,0.077,0.602c-0.064,0.199-0.188,0.361-0.318,0.52
			c-0.223,0.267-0.431,0.542-0.637,0.821c-0.046,0.062-0.063,0.154-0.073,0.235c-0.03,0.228,0.033,0.43,0.174,0.613
			c0.421,0.544,0.838,1.088,1.249,1.637c0.153,0.202,0.329,0.398,0.436,0.624c0.31,0.657,0.534,1.34,0.48,2.084
			c-0.013,0.169-0.021,0.339-0.033,0.508c-0.025,0.353-0.058,0.705-0.078,1.058c-0.021,0.415-0.074,0.829-0.042,1.249
			c0.056,0.733,0.045,1.471-0.065,2.2c-0.054,0.356-0.159,0.684-0.534,0.855c-0.165,0.076-0.295,0.223-0.366,0.402
			c-0.091,0.235-0.013,0.455,0.281,0.485c0.448,0.048,0.889-0.002,1.333-0.032c0.082-0.006,0.164-0.01,0.266-0.016
			c0.011,8.955,0.056,17.886,0.045,26.843c-0.11-0.038-0.192-0.062-0.268-0.094c-0.394-0.164-0.764-0.375-1.106-0.625
			c-0.299-0.225-0.632-0.373-0.993-0.459c-1.059-0.255-2.137-0.341-3.221-0.253c-0.36,0.03-0.713,0.12-1.032,0.299
			c-0.114,0.064-0.227,0.145-0.322,0.238c-0.124,0.126-0.109,0.263,0.029,0.363c0.079,0.058,0.175,0.094,0.264,0.134
			c0.053,0.026,0.108,0.044,0.205,0.08c-0.401,0.145-0.761,0.278-1.119,0.403c-0.064,0.02-0.141,0.016-0.209,0.016
			c-0.857-0.012-1.715-0.012-2.568-0.044c-0.457-0.015-0.914-0.08-1.372-0.133c-0.447-0.05-0.896-0.116-1.343-0.168
			c-0.618-0.074-1.237-0.13-1.852-0.225c-0.378-0.056-0.754-0.15-1.028-0.469c-0.067,0.028-0.13,0.057-0.194,0.09
			c-0.281,0.143-0.562,0.297-0.849,0.427c-0.199,0.093-0.406,0.167-0.618,0.221c-0.421,0.099-0.854,0.108-1.285,0.118
			c-0.763,0.021-1.528,0.038-2.291,0.053c-0.416,0.01-0.837,0.044-1.251,0.021c-1.069-0.062-2.136-0.066-3.204-0.018
			c-1.06,0.05-2.117,0.114-3.171,0.236c-0.597,0.07-1.172,0.192-1.691,0.507c-0.072,0.042-0.151,0.084-0.232,0.103
			c-0.145,0.031-0.298,0.076-0.433,0.052c-0.277-0.05-0.546-0.139-0.815-0.223c-0.172-0.056-0.316-0.154-0.381-0.332
			c-0.21,0.036-0.422,0.111-0.627,0.26c-0.172,0.125-0.356,0.141-0.544,0.082c-0.188-0.056-0.37-0.138-0.555-0.208
			c-0.178-0.068-0.353-0.148-0.536-0.192c-0.52-0.139-1.039-0.062-1.558,0.022c-0.366,0.058-0.643,0.25-0.825,0.57
			C45.858,81.907,45.682,82.107,45.396,82.188z M68.126,53.385c-0.074-0.066-0.126-0.114-0.177-0.156
			c-0.249-0.201-0.496-0.401-0.744-0.602c-0.496-0.389-0.969-0.808-1.491-1.158c-4.46-2.983-8.933-5.955-13.4-8.931
			c-0.761-0.507-1.517-1.014-2.277-1.519c-0.753-0.501-1.493-1.023-2.266-1.497c-1.439-0.885-2.896-1.741-4.347-2.609
			c-2.165-1.297-4.331-2.595-6.5-3.889c-0.133-0.081-0.224-0.178-0.281-0.326c-0.085-0.217-0.192-0.425-0.277-0.642
			c-0.058-0.144-0.146-0.249-0.271-0.34c-1.558-1.128-3.112-2.263-4.672-3.39c-0.373-0.27-0.762-0.515-1.141-0.772
			c-0.543-0.37-1.144-0.419-1.771-0.331c-0.696,0.098-1.339,0.342-1.948,0.688c-0.226,0.129-0.46,0.248-0.701,0.353
			c-0.584,0.256-1.198,0.423-1.823,0.549c-0.056,0.011-0.109,0.032-0.211,0.062c0.104,0.076,0.171,0.162,0.224,0.155
			c0.16-0.02,0.231,0.083,0.319,0.172c2.325,2.376,4.649,4.754,6.976,7.131c0.667,0.683,1.331,1.371,2.006,2.044
			c0.181,0.18,0.199,0.448,0.385,0.618c0.016,0.014,0.014,0.054,0.012,0.082c-0.002,0.102,0.065,0.142,0.142,0.189
			c0.112,0.071,0.223,0.149,0.314,0.242c0.156,0.155,0.301,0.32,0.441,0.49c0.212,0.259,0.485,0.473,0.631,0.789
			c0.015,0.03,0.044,0.057,0.072,0.077c0.112,0.085,0.187,0.201,0.276,0.307c0.421,0.486,0.842,0.975,1.294,1.43
			c0.599,0.602,1.227,1.172,1.844,1.756c0.257,0.243,0.513,0.486,0.773,0.726c0.583,0.537,1.156,1.082,1.689,1.671
			c0.764,0.844,1.539,1.678,2.309,2.516c0.546,0.595,1.086,1.193,1.635,1.782c0.525,0.565,1.044,1.137,1.591,1.678
			c0.458,0.453,0.955,0.863,1.431,1.298c0.119,0.108,0.242,0.223,0.331,0.355c0.262,0.393,0.509,0.797,0.76,1.2
			c0.119,0.192,0.273,0.356,0.446,0.505c0.266,0.227,0.526,0.455,0.782,0.686c0.521,0.458,1.062,0.892,1.501,1.437
			c0.169,0.212,0.376,0.379,0.596,0.537c0.315,0.229,0.617,0.477,0.942,0.689c0.397,0.266,0.686,0.61,0.945,1.01
			c0.321,0.488,0.677,0.96,1.069,1.395c0.53,0.597,1.11,1.148,1.669,1.721c2.061,2.101,4.121,4.202,6.177,6.311
			c0.126,0.126,0.258,0.202,0.439,0.221c0.345,0.038,0.687,0.09,1.031,0.136c1.163,0.154,2.329,0.278,3.501,0.327
			c0.65,0.025,1.301,0.05,1.95-0.04c0.888-0.125,1.57-0.533,1.902-1.413c0.083-0.221,0.168-0.437,0.246-0.657
			c0.286-0.815,0.546-1.639,0.855-2.44c0.837-2.175,1.45-4.404,1.881-6.691c0.05-0.256,0.084-0.519,0.145-0.77
			c0.062-0.248,0.074-0.246-0.142-0.389c-0.714-0.473-1.43-0.941-2.143-1.416c-0.576-0.385-1.146-0.78-1.722-1.167
			c-0.71-0.477-1.428-0.941-2.133-1.427c-0.25-0.17-0.509-0.292-0.81-0.34c-0.22-0.034-0.434-0.103-0.688-0.163
			C67.871,53.549,67.981,53.477,68.126,53.385z M29.256,55.737c-0.05,0.096-0.08,0.152-0.104,0.208
			c-0.959,2.265-1.924,4.528-2.872,6.795c-0.223,0.535-0.394,1.09-0.579,1.64c-0.245,0.729-0.481,1.462-0.72,2.193
			c-0.027,0.087-0.046,0.175-0.067,0.251c0.398,0.307,0.778,0.602,1.157,0.896c1.442,1.132,2.883,2.263,4.322,3.395
			c0.101,0.08,0.202,0.12,0.332,0.108c0.183-0.017,0.366-0.024,0.549-0.028c0.946-0.046,1.894-0.09,2.839-0.132
			c0.41-0.019,0.819-0.034,1.23-0.049c0.201-0.008,0.385-0.052,0.548-0.186c0.157-0.133,0.344-0.227,0.498-0.361
			c0.355-0.309,0.771-0.446,1.228-0.519c0.397-0.061,0.794-0.126,1.174-0.276c1.18-0.476,2.369-0.937,3.553-1.403
			c0.018-0.008,0.036-0.018,0.078-0.038c-0.076-0.078-0.128-0.134-0.182-0.184c-1.361-1.299-2.721-2.6-4.085-3.896
			c-0.62-0.59-1.245-1.175-1.868-1.762c-0.654-0.615-1.303-1.236-1.955-1.855c-1.621-1.539-3.242-3.078-4.863-4.617
			C29.411,55.861,29.347,55.812,29.256,55.737z M56.018,30.622c0.104,0.08,0.178,0.141,0.257,0.201
			c2.839,2.163,5.681,4.328,8.521,6.493c0.968,0.737,1.936,1.474,2.904,2.21c0.083,0.064,0.16,0.129,0.278,0.136
			c0.375,0.02,0.746,0.051,1.121,0.076c0.062,0.004,0.123-0.005,0.198-0.009c0-0.076,0.006-0.138-0.002-0.199
			c-0.062-0.562-0.131-1.123-0.189-1.685c-0.011-0.108,0.003-0.227,0.039-0.331c0.109-0.335,0.236-0.666,0.353-0.999
			c0.026-0.073,0.049-0.148,0.061-0.224c0.034-0.281,0.071-0.562,0.092-0.843c0.034-0.47,0.119-0.924,0.357-1.337
			c0.003-0.006,0.007-0.012,0.009-0.019c0.219-0.661,0.507-1.311,0.354-2.037c-0.004-0.02-0.003-0.042-0.005-0.063
			c-0.05-0.506-0.104-1.012-0.143-1.519c-0.013-0.145-0.076-0.227-0.191-0.303c-1.182-0.776-2.362-1.554-3.539-2.339
			c-0.142-0.095-0.263-0.119-0.43-0.07c-1.87,0.548-3.743,1.089-5.616,1.63c-0.089,0.025-0.18,0.055-0.268,0.061
			c-0.644,0.046-1.285,0.089-1.927,0.125c-0.122,0.007-0.233,0.033-0.343,0.088c-0.575,0.29-1.15,0.576-1.727,0.864
			C56.14,30.55,56.098,30.576,56.018,30.622z"/>
	</g>
</g>
</svg>
