<?xml version="1.0" encoding="utf-8"?>
<!-- Generator: Adobe Illustrator 16.0.0, SVG Export Plug-In . SVG Version: 6.00 Build 0)  -->
<!DOCTYPE svg PUBLIC "-//W3C//DTD SVG 1.1//EN" "http://www.w3.org/Graphics/SVG/1.1/DTD/svg11.dtd">
<svg version="1.1" id="Layer_1" xmlns="http://www.w3.org/2000/svg" xmlns:xlink="http://www.w3.org/1999/xlink" x="0px" y="0px"
	 width="100px" height="100px" viewBox="0 0 100 100" enable-background="new 0 0 100 100" xml:space="preserve">
<g>
	<path fill-rule="evenodd" clip-rule="evenodd" fill="#E0E0E0" d="M16.924,86.312c2.61-1.654,5.059-3.168,7.466-4.747
		c1.444-0.945,2.905-1.899,4.205-3.026c1.196-1.037,2.063-2.287,2.058-4.083c-0.044-16.632-0.048-33.264-0.003-49.895
		c0.007-2.578-0.951-4.448-3.052-5.912c-2.367-1.649-4.627-3.452-6.932-5.19c-0.072-0.055-0.122-0.138-0.246-0.282
		c12.511,0,24.928,0,37.456,0c-0.811,0.694-1.531,1.342-2.285,1.951c-2.384,1.93-4.547,4.073-6.125,6.719
		c-0.402,0.672-0.631,1.557-0.632,2.343c-0.036,15.159-0.027,30.318-0.028,45.478c0,1.257-0.124,1.081,1.134,1.319
		c1.521,0.285,3.087,0.349,4.634,0.497c1.572,0.149,3.149,0.418,4.72,0.391c1.438-0.023,2.889-0.283,4.297-0.599
		c2.988-0.671,5.771-1.874,8.469-3.333c2.651-1.433,5.165-3.058,7.635-4.772c1.379-0.959,2.808-1.846,4.219-2.761
		c0.097-0.062,0.229-0.069,0.413-0.122c-0.173,0.84-0.419,1.61-0.477,2.395c-0.167,2.287-1.205,4.293-1.999,6.371
		c-0.898,2.353-1.934,4.653-2.889,6.986c-1.28,3.135-2.541,6.277-3.813,9.418c-0.222,0.547-0.466,0.883-1.228,0.883
		c-18.688-0.036-37.377-0.028-56.065-0.028C17.606,86.312,17.359,86.312,16.924,86.312z"/>
</g>
</svg>
